PathFileType	4	(X/Y/Z)	c:/Users/goper/Files/vsCode/490R/osim_files/C04/C04_SSWS_01.trc
DataRate	CameraRate	NumFrames	NumMarkers	Units                	OrigDataRate	OrigDataStartFrame	OrigNumFrames
250.00	250.00	11	36	mm	250.0	1122	2991
                Frame#	Time	LPSIS			LASIS			LTH1			LTH2			LTH3			LTH4			LLFE			LMFE			LSH1			LSH2			LSH3			LSH4			LLMAL			LMMAL			LCAL			LMTP5			LTOE			LMTP1			RPSIS			RASIS			RTH1			RTH2			RTH3			RTH4			RLFE			RMFE			RSH1			RSH2			RSH3			RSH4			RLMAL			RMMAL			RCAL			RMTP1			RTOE			RMTP5		
		X1	Y1	Z1	X2	Y2	Z2	X3	Y3	Z3	X4	Y4	Z4	X5	Y5	Z5	X6	Y6	Z6	X7	Y7	Z7	X8	Y8	Z8	X9	Y9	Z9	X10	Y10	Z10	X11	Y11	Z11	X12	Y12	Z12	X13	Y13	Z13	X14	Y14	Z14	X15	Y15	Z15	X16	Y16	Z16	X17	Y17	Z17	X18	Y18	Z18	X19	Y19	Z19	X20	Y20	Z20	X21	Y21	Z21	X22	Y22	Z22	X23	Y23	Z23	X24	Y24	Z24	X25	Y25	Z25	X26	Y26	Z26	X27	Y27	Z27	X28	Y28	Z28	X29	Y29	Z29	X30	Y30	Z30	X31	Y31	Z31	X32	Y32	Z32	X33	Y33	Z33	X34	Y34	Z34	X35	Y35	Z35	X36	Y36	Z36

1122	4.48400	330.70316	965.49152	234.02859	172.14426	943.84998	323.02753	310.67587	704.81305	368.10718	310.27649	643.76624	355.00824	246.17104	709.94702	377.88467	234.37158	647.69171	362.97388	297.73752	441.62671	339.05963	287.80414	421.85458	224.75757	397.94690	398.95322	347.28864	437.91135	372.61966	342.12982	364.96616	359.54910	351.41928	399.12613	327.69278	348.54980	599.93536	176.29733	320.02014	582.01697	194.62373	231.55945	659.06500	222.53653	277.62601	568.68665	41.84367	308.81461	544.85028	49.86399	253.57932	578.85992	57.55501	201.81073	325.19147	969.76300	159.46005	149.20232	948.90253	112.28483	205.60710	716.56104	24.47542	188.91129	657.84064	38.35382	140.26607	737.31580	40.58095	121.55579	686.48511	49.73266	82.12163	469.27933	98.87712	105.78814	465.90097	207.17418	127.51681	331.39252	73.33300	119.66827	286.81516	80.02973	0.00000	0.00000	0.00000	67.85033	289.53247	91.90363	94.08194	83.33759	111.78182	95.87446	96.30852	203.50653	159.43802	52.21962	152.65878	-31.07976	38.67865	214.38429	-65.46944	58.76814	176.25525	-40.66419	28.75720	111.84001
1123	4.48800	326.06290	965.41534	233.74976	167.54868	943.82172	322.57819	304.73480	703.93903	367.62827	303.79892	642.89142	354.69614	240.20830	709.59259	377.49442	227.91663	647.46613	362.83289	289.57614	441.05685	339.18344	278.35150	420.35437	225.10434	390.00916	399.92554	347.39615	429.79807	373.72067	342.06638	356.93082	359.83618	351.65439	391.56650	328.42422	348.95621	593.83807	179.43755	320.40604	575.52130	197.49471	232.01257	651.78107	227.58624	278.25562	566.65442	43.71047	308.91565	542.25317	51.16871	253.84431	577.19482	60.82868	201.66656	320.46420	969.83429	159.17401	144.52345	949.16357	111.89987	201.26393	716.86169	23.98608	184.98102	658.03302	37.88582	135.48538	737.17694	40.32283	0.00000	0.00000	0.00000	79.56158	468.73630	98.39635	103.29811	465.90070	207.19514	125.43366	331.16882	73.40457	117.72634	286.46600	80.23083	0.00000	0.00000	0.00000	65.90502	288.95099	92.03881	93.68230	83.25020	112.09908	95.27906	96.05040	203.69939	158.90228	52.15494	152.73665	-31.06179	37.67252	215.26805	-65.69815	57.28458	176.87848	-40.97694	28.02767	112.09721
1124	4.49200	321.37112	965.36786	233.45625	163.24203	943.78809	322.28369	298.80634	703.07593	367.15811	296.78717	641.74323	354.17468	234.30461	709.30438	377.13797	221.46356	647.16608	362.61804	281.35382	440.51227	339.33011	269.44193	419.45053	225.13643	381.05829	400.33426	347.28705	421.57187	374.78558	342.02481	349.45572	360.68109	353.28607	383.80673	329.08353	349.24976	587.55884	182.75554	320.83081	569.02728	200.54498	232.43802	644.19922	232.68536	278.84119	564.47784	45.93859	308.98221	540.93024	52.09135	254.20100	573.83740	63.79316	202.03972	315.80215	969.93640	158.83449	139.87785	949.62225	111.31345	197.03598	717.12988	23.53436	181.17638	658.20447	37.48335	131.70827	737.46277	39.44946	112.23152	685.76111	49.59899	76.97934	468.15765	98.09310	100.94638	465.98834	207.26541	123.44249	330.99188	73.53543	116.07190	286.29486	80.40174	0.00000	0.00000	0.00000	64.06590	288.40451	92.23188	93.41772	83.22327	112.28109	94.81180	95.80499	203.84662	158.94315	52.50046	152.87946	-31.11967	36.62428	215.98486	-65.85567	56.09958	177.39784	-41.11773	27.54957	112.24977
1125	4.49600	316.83231	965.32733	233.08859	158.63683	943.92645	321.68698	292.88211	702.27393	366.62692	290.29327	640.88696	353.79376	228.52376	709.07233	376.77869	214.99953	646.95825	362.43387	273.03598	440.07983	339.48038	260.29776	418.46686	225.26926	372.96887	401.38611	347.33823	413.34879	375.93094	341.95068	341.27802	361.05066	353.63541	375.82721	329.85406	349.58725	581.16119	186.18605	321.38690	562.09583	203.55942	232.90526	636.48914	237.71373	279.54147	561.93921	48.20033	309.09845	536.32257	53.89265	254.67137	570.58740	67.14236	202.50633	311.19983	970.03613	158.50098	134.42972	950.17169	109.75423	193.01596	717.43658	23.05882	177.54297	658.39221	37.08041	129.19441	738.30768	37.78374	108.94328	685.60608	48.74680	74.46203	467.61542	97.87103	98.57853	465.93863	207.28537	121.55175	330.79147	73.68371	114.42344	286.09973	80.60362	0.00000	0.00000	0.00000	62.34595	287.91681	92.39900	93.03227	83.19431	112.55571	94.41544	95.58926	204.04390	158.74316	52.61882	152.94972	-31.44340	35.54909	216.21747	-65.93659	54.88500	177.64018	-41.23074	27.17070	112.34670
1126	4.50000	312.24060	965.20880	232.78516	154.37494	943.83051	321.46774	286.95090	701.40778	366.09088	284.35867	640.27167	353.59140	222.70320	708.81622	376.44839	208.55939	646.76495	362.31699	264.75455	439.73184	339.61911	251.11882	417.58020	225.41087	363.77365	401.83163	347.23779	404.89978	377.05466	341.89032	332.95193	361.51279	353.97302	367.87592	330.63022	349.97369	574.30878	189.51942	321.75156	555.24127	206.78452	233.27364	628.42725	242.65797	280.17114	559.05780	50.56001	309.28778	532.53357	55.39836	255.06204	566.77527	70.58858	203.04655	306.62387	970.11823	158.15738	130.53290	950.06207	110.61438	188.98746	717.69666	22.67930	173.90234	658.54871	36.75688	127.57574	739.49969	35.55373	105.09635	685.29150	48.27111	71.68806	466.91348	97.77674	96.27743	465.82455	207.33360	119.64600	330.56946	73.87325	112.70039	285.81784	80.86522	0.00000	0.00000	0.00000	60.74706	287.41562	92.65338	92.57352	83.07078	112.83868	94.03545	95.35072	204.22937	158.55569	52.70272	153.00531	-31.81859	34.63415	216.30295	-66.17242	53.93350	177.90239	-41.29256	26.85774	112.40704
1127	4.50400	307.75751	965.16797	232.47339	150.11177	943.64429	321.28967	281.01587	700.60309	365.52124	277.91385	639.49695	353.15710	216.87390	708.63379	376.06140	202.31766	646.73975	362.26962	256.35788	439.41818	339.72690	242.07146	416.93210	225.45422	355.13309	402.68430	347.20303	396.40344	378.14639	341.87820	324.70200	362.08023	354.25192	359.59488	331.32816	350.29300	567.50934	193.13545	322.26459	547.59198	209.55115	234.29836	620.16504	247.55310	280.97009	555.75983	53.08202	309.37573	528.17798	56.84816	255.50102	562.55988	74.16187	203.61218	302.07791	970.24341	157.82722	125.86671	950.39355	110.12845	184.74469	717.86774	22.44589	170.30707	658.73022	36.47554	124.62910	739.89825	34.24503	101.21177	685.07141	47.94919	69.24293	466.45505	97.60325	94.19553	465.81091	207.41302	117.78236	330.39810	74.02317	111.11530	285.72070	81.02734	0.00000	0.00000	0.00000	59.04402	286.97546	92.87700	92.27551	83.01961	112.99775	93.75853	95.20365	204.35390	158.42467	52.82320	153.04166	-32.12014	33.97362	216.32832	-66.40604	53.27251	178.02740	-41.41929	26.53852	112.47974
1128	4.50800	303.29727	965.18195	232.09627	145.04865	943.87256	321.96860	275.19705	699.88647	364.94214	271.43021	638.75995	352.76416	211.08629	708.50415	375.71548	195.97200	646.75348	362.15042	247.82957	439.18674	339.82416	232.99158	416.40540	225.52676	346.45496	403.69147	347.20035	387.81720	379.29605	341.83627	316.29575	362.68491	354.49454	351.54517	332.34067	350.64108	560.16534	196.60187	322.62079	540.20221	212.80223	234.76973	611.86676	252.35010	281.63077	552.21381	55.76520	309.49307	523.05920	58.23896	255.98579	557.84796	77.75697	204.24362	297.58731	970.40918	157.47809	121.26605	950.47754	109.91364	182.23622	718.58923	21.70838	166.73772	658.96533	36.22633	120.13972	739.70612	34.18646	95.41161	683.94812	49.15007	66.69573	466.02255	97.51535	92.10849	465.79770	207.38792	116.07937	330.42969	74.08357	109.93737	285.78317	80.87877	0.00000	0.00000	0.00000	57.19745	286.37921	93.38556	92.06640	83.00985	113.12573	93.56148	95.10780	204.40976	158.33739	52.92690	153.07848	-32.25483	33.45814	216.29823	-66.67693	52.88243	178.38499	-41.54858	26.25078	112.51657
1129	4.51200	298.91586	965.21130	231.77074	140.67035	944.05060	321.58722	269.33755	699.19580	364.37598	264.98441	638.08020	352.39435	205.35056	708.39960	375.29279	189.60609	646.73157	361.90277	239.25665	439.05637	339.95081	224.10324	416.06924	225.51927	337.83566	404.63943	347.21417	379.16495	380.48505	341.84247	307.74939	363.23862	354.70309	343.27798	333.24094	350.88492	552.95288	200.26016	323.07181	532.59778	216.09680	235.31328	603.44653	257.05869	282.20074	548.06592	58.45388	309.52893	517.04865	59.50788	256.33774	552.55994	81.36879	204.91510	293.15179	970.58954	157.08507	116.69115	950.55383	109.74789	176.61378	718.12494	21.76731	164.14352	659.41058	35.89250	114.75243	739.14838	34.83859	0.00000	0.00000	0.00000	63.99218	465.74207	97.50237	89.77018	465.70428	207.26550	114.29321	330.41559	74.12897	108.10264	285.58990	81.25074	0.00000	0.00000	0.00000	55.79263	286.04526	93.53160	91.90009	83.01591	113.17307	93.36467	95.09454	204.44505	158.23560	53.04161	153.08769	-32.31421	33.30067	216.43692	-66.70689	52.48635	178.49075	-41.63038	25.98059	112.50910
1130	4.51600	294.54620	965.26825	231.43695	136.36023	944.04932	321.41852	263.55960	698.57959	363.81509	258.59787	637.47235	352.02524	199.63942	708.44421	374.80313	183.39326	647.02014	361.88419	230.53578	438.93103	340.02875	215.29321	415.87131	225.46590	328.87949	405.50357	347.11856	370.39401	381.63312	341.83972	299.23819	364.01743	354.89493	334.70862	334.00519	351.03030	545.33307	203.71584	323.44336	524.77319	219.31032	235.77502	594.88800	261.53979	282.70752	543.48517	61.21285	309.49911	510.34232	60.55111	256.95343	546.77917	84.84510	205.66428	288.72241	970.79944	156.76759	112.13763	950.79279	109.46980	172.74406	718.48987	21.45220	159.97870	659.60425	35.68442	109.48088	738.65942	35.46603	0.00000	0.00000	0.00000	61.24684	465.55313	97.52326	87.38659	465.60037	207.09332	112.52127	330.39075	74.15366	106.99804	285.77939	80.96582	0.00000	0.00000	0.00000	54.28201	285.67627	93.76023	91.70986	82.99886	113.30083	93.15707	95.06141	204.45738	158.16585	53.18867	153.07829	-32.30341	32.93879	216.53088	-66.77147	51.97955	178.55522	-41.72010	25.77473	112.54619
1131	4.52000	290.23553	965.35516	231.06566	132.18826	943.94391	321.39444	257.73862	697.97382	363.26477	251.62651	636.67279	351.50662	193.98093	708.53577	374.38651	177.11836	647.28418	361.65845	221.74641	438.94522	340.08194	206.91678	416.01410	225.27397	319.88541	406.36176	347.07495	361.59174	382.76608	341.83969	290.40750	364.62274	354.93262	326.30243	334.94461	351.21448	537.58228	206.88922	323.71051	516.86554	222.35112	236.20534	586.27039	265.66818	283.04013	538.65887	63.90699	309.51819	503.30447	61.25917	257.34631	540.71686	87.97276	206.34938	284.47031	971.07111	156.40089	107.57375	950.96820	109.24710	168.89532	718.88135	21.15348	156.38901	659.97424	35.41139	104.53878	738.33722	35.92057	86.67029	684.87225	46.69408	58.39894	465.50229	97.60399	84.51488	465.31351	207.12370	110.85677	330.50586	74.00101	105.19658	285.67374	81.18594	0.00000	0.00000	0.00000	52.64566	285.28699	94.11065	91.56319	83.02160	113.33728	93.02058	95.09486	204.42873	158.08163	53.28978	153.05933	-32.37526	32.71769	216.73676	-66.87938	51.64926	178.57388	-41.77732	25.60988	112.55495
1132	4.52400	285.92206	965.40466	230.74724	127.84343	943.96069	321.34152	251.94186	697.39099	362.71051	245.66360	636.34381	351.31421	188.21997	708.60077	373.94513	170.79474	647.45154	361.47729	212.77869	438.97086	340.07834	199.29065	416.44543	224.77995	310.89020	407.25305	347.10654	352.45065	383.83804	341.87851	281.71573	365.27109	354.97870	317.79080	335.85126	351.30963	529.85968	209.81435	324.00015	509.44696	225.19714	236.48276	577.55347	269.28137	283.16226	533.17041	66.69826	309.87106	496.94812	63.33869	257.94418	534.56195	90.78780	206.84317	280.29907	971.36420	156.09193	103.12287	951.10022	109.15760	164.91978	719.20374	20.91476	152.28094	660.32056	35.22696	99.90287	738.16675	36.21624	0.00000	0.00000	0.00000	55.58910	465.53799	97.67088	84.10944	465.92563	206.75830	109.12543	330.58316	73.83144	103.84705	285.70740	81.03912	0.00000	0.00000	0.00000	51.32130	285.15024	94.08812	91.42433	82.99773	113.36320	92.86214	95.08143	204.41956	158.01556	53.39277	153.03835	-32.40910	32.50335	216.89647	-66.95602	51.40121	178.60909	-41.87410	25.38686	112.58842
